<?xml version="1.0" standalone="no"?>
<!DOCTYPE svg PUBLIC "-//W3C//DTD SVG 20010904//EN"
 "http://www.w3.org/TR/2001/REC-SVG-20010904/DTD/svg10.dtd">
<svg version="1.0" xmlns="http://www.w3.org/2000/svg"
 width="512.000000pt" height="512.000000pt" viewBox="0 0 512.000000 512.000000"
 preserveAspectRatio="xMidYMid meet">

<g transform="translate(0.000000,512.000000) scale(0.100000,-0.100000)"
fill="#000000" stroke="none">
<path d="M647 4856 c-6 -15 -14 -17 -41 -13 -49 8 -71 -18 -62 -74 5 -31 3
-44 -8 -53 -22 -16 -27 -165 -6 -176 8 -4 25 -12 37 -18 33 -18 39 -16 79 28
31 33 40 38 56 29 19 -10 19 -10 0 18 -12 15 -24 48 -27 73 -6 41 -4 48 24 78
37 38 47 40 57 10 4 -15 1 -25 -12 -35 -16 -11 -17 -17 -6 -34 7 -11 10 -25 6
-31 -5 -7 -3 -8 5 -4 8 5 10 19 6 36 -3 16 -2 31 4 35 16 9 13 30 -8 56 l-19
23 -36 -19 c-20 -11 -36 -23 -36 -27 0 -5 -7 -8 -15 -8 -8 0 -15 9 -15 20 0
14 9 21 37 26 30 6 34 8 18 14 -12 4 -22 19 -25 36 -5 25 -7 26 -13 10z m-28
-168 c21 -9 23 -12 8 -15 -22 -6 -47 14 -46 36 0 11 2 12 6 3 3 -7 17 -18 32
-24z"/>
<path d="M837 4843 c-4 -3 -7 -17 -7 -30 0 -13 -7 -35 -17 -49 -15 -24 -15
-26 6 -47 12 -12 28 -31 36 -42 13 -19 14 -19 35 8 12 15 26 25 31 22 5 -4 9
1 9 9 0 22 -17 28 -25 9 -5 -16 -8 -15 -25 7 -25 33 -25 38 6 62 24 19 24 21
8 39 -17 19 -45 25 -57 12z"/>
<path d="M994 4735 c-11 -11 -24 -25 -28 -32 -10 -18 16 -144 31 -150 21 -8
26 3 13 27 -14 25 -4 114 11 105 13 -9 11 -42 -3 -65 -10 -16 -10 -22 3 -35
13 -14 19 -11 53 24 37 38 41 61 9 61 -8 0 -26 9 -40 20 -14 11 -35 20 -46 20
-28 0 -15 11 23 19 26 5 28 7 13 16 -14 8 -23 6 -39 -10z"/>
<path d="M1085 4720 c27 -12 43 -12 25 0 -8 5 -22 9 -30 9 -10 0 -8 -3 5 -9z"/>
<path d="M1077 4592 c-40 -41 -48 -80 -21 -106 34 -35 50 -17 56 64 3 31 6 35
27 32 36 -4 37 -9 8 -36 -27 -25 -38 -54 -14 -39 6 4 25 8 41 8 25 0 30 5 42
45 7 24 12 45 11 47 -2 1 -20 -3 -41 -9 -35 -11 -39 -10 -55 10 l-16 22 -38
-38z"/>
<path d="M838 4515 c9 -19 92 -73 92 -61 0 3 -13 12 -30 21 -16 8 -39 25 -51
38 -19 20 -20 20 -11 2z"/>
<path d="M3700 4504 c0 -10 6 -14 15 -10 10 3 15 -1 15 -11 0 -9 3 -14 6 -10
3 3 3 15 -1 26 -8 25 -35 28 -35 5z"/>
<path d="M785 4480 c-16 -11 -25 -20 -19 -20 11 0 64 39 54 40 -3 0 -18 -9
-35 -20z"/>
<path d="M3533 4475 c-11 -11 -8 -13 15 -11 15 2 35 4 45 5 10 0 15 6 12 11
-9 15 -58 11 -72 -5z"/>
<path d="M3696 4443 c-2 -10 -4 -38 -4 -63 0 -36 2 -40 8 -23 8 19 10 103 4
103 -2 0 -5 -8 -8 -17z"/>
<path d="M718 4433 c-16 -17 -58 -174 -58 -213 0 -11 16 -31 35 -46 19 -14 58
-56 86 -91 47 -60 52 -64 68 -49 10 9 20 14 23 11 3 -3 18 1 34 10 18 9 23 15
12 15 -9 0 -19 -4 -22 -8 -2 -4 -17 -8 -33 -7 -37 0 -41 34 -12 99 l21 48 17
-24 c9 -14 24 -33 34 -42 9 -10 17 -24 17 -32 0 -27 1 -29 21 -36 25 -10 51 3
73 37 16 24 16 25 -7 25 -13 0 -28 -5 -35 -12 -9 -9 -12 -7 -12 13 0 13 -16
42 -35 64 -45 52 -46 81 -2 93 31 9 33 7 64 -47 18 -31 33 -60 33 -65 0 -5 3
-7 6 -3 4 3 -10 35 -30 71 -30 54 -36 74 -36 124 0 41 -5 63 -15 72 -9 7 -18
10 -22 6 -3 -3 -1 -6 5 -6 28 0 8 -23 -40 -46 -29 -14 -71 -36 -93 -50 -22
-13 -43 -24 -47 -24 -15 0 -8 29 8 38 17 10 23 58 8 72 -21 18 -51 20 -66 3z
m102 -173 c0 -92 -39 -150 -75 -114 -24 25 -16 170 9 161 6 -2 20 -1 31 4 34
13 35 11 35 -51z"/>
<path d="M3324 4424 c-18 -14 -18 -14 6 -3 31 14 36 19 24 19 -6 0 -19 -7 -30
-16z"/>
<path d="M3334 4398 c-88 -52 -121 -78 -102 -78 8 0 30 12 49 26 19 14 52 34
75 44 40 19 76 50 57 50 -5 0 -40 -19 -79 -42z"/>
<path d="M3718 4378 c-2 -23 -1 -60 3 -82 4 -31 6 -21 7 42 1 88 -3 108 -10
40z"/>
<path d="M1570 4396 c0 -22 23 -36 40 -25 13 8 12 12 -4 24 -25 19 -36 19 -36
1z"/>
<path d="M3642 4385 c0 -16 2 -22 5 -12 2 9 2 23 0 30 -3 6 -5 -1 -5 -18z"/>
<path d="M3230 4369 c-17 -13 -18 -17 -5 -10 33 17 51 31 40 31 -5 0 -21 -10
-35 -21z"/>
<path d="M3334 4344 c-18 -14 -18 -15 4 -4 12 6 22 13 22 15 0 8 -5 6 -26 -11z"/>
<path d="M3613 4343 c9 -2 23 -2 30 0 6 3 -1 5 -18 5 -16 0 -22 -2 -12 -5z"/>
<path d="M3681 4314 c0 -11 3 -14 6 -6 3 7 2 16 -1 19 -3 4 -6 -2 -5 -13z"/>
<path d="M1357 4301 c-9 -36 17 -43 46 -13 l27 28 -34 2 c-26 2 -35 -2 -39
-17z"/>
<path d="M3100 4240 c-8 -5 -12 -12 -9 -15 4 -3 12 1 19 10 14 17 11 19 -10 5z"/>
<path d="M3285 4234 c-19 -16 -19 -16 5 -9 31 9 50 25 30 25 -8 0 -24 -8 -35
-16z"/>
<path d="M3706 4235 c-9 -26 -7 -32 5 -12 6 10 9 21 6 23 -2 3 -7 -2 -11 -11z"/>
<path d="M1704 4196 c9 -29 13 -33 28 -25 17 9 17 11 2 34 -25 39 -43 33 -30
-9z"/>
<path d="M3656 4214 c-10 -25 1 -29 14 -5 6 12 7 21 1 21 -5 0 -12 -7 -15 -16z"/>
<path d="M1865 4210 c-3 -5 -1 -10 4 -10 6 0 11 5 11 10 0 6 -2 10 -4 10 -3 0
-8 -4 -11 -10z"/>
<path d="M1802 4198 c-14 -14 -16 -48 -4 -48 13 0 39 24 45 43 7 20 -22 24
-41 5z"/>
<path d="M3031 4190 c-13 -11 -19 -20 -14 -20 6 0 20 9 33 20 30 26 12 26 -19
0z"/>
<path d="M2959 4173 c-13 -16 -12 -17 4 -4 9 7 17 15 17 17 0 8 -8 3 -21 -13z"/>
<path d="M3662 4155 c-17 -37 -14 -45 4 -12 9 16 14 31 11 33 -2 2 -9 -7 -15
-21z"/>
<path d="M1721 4136 c-9 -11 -8 -15 5 -20 22 -8 24 -8 24 8 0 21 -16 28 -29
12z"/>
<path d="M2951 4136 c-10 -12 -8 -13 8 -9 12 3 21 9 21 14 0 14 -16 11 -29 -5z"/>
<path d="M1818 4132 c-22 -4 -28 -24 -14 -44 11 -14 13 -14 33 1 16 13 18 20
9 32 -6 8 -18 13 -28 11z"/>
<path d="M2398 4109 c-72 -37 -126 -143 -135 -264 -5 -60 -2 -77 16 -110 19
-35 21 -23 4 23 -7 18 77 16 103 -3 27 -18 57 -82 50 -102 -5 -11 -17 -14 -50
-12 l-43 4 -13 -43 c-15 -53 -9 -68 55 -140 56 -62 97 -86 132 -77 33 8 109
79 139 131 22 38 24 45 13 85 -12 44 -12 44 -51 40 -22 -2 -44 1 -50 7 -15 15
-2 55 28 91 22 27 32 31 76 31 44 0 49 -2 43 -17 -17 -42 -15 -55 4 -23 51 88
1 288 -90 365 -17 14 -39 25 -50 25 -17 0 -19 -8 -19 -75 l0 -75 35 0 c19 0
35 -5 35 -11 0 -10 -117 -169 -124 -169 -6 0 -116 149 -122 165 -5 12 2 15 30
15 l36 0 0 74 c0 41 -3 77 -7 79 -5 3 -25 -4 -45 -14z m140 -601 c-3 -26 -41
-37 -64 -18 -19 17 -18 29 7 69 l21 34 20 -31 c11 -17 18 -42 16 -54z"/>
<path d="M2751 4100 c0 -8 4 -24 9 -35 5 -13 9 -14 9 -5 0 8 -4 24 -9 35 -5
13 -9 14 -9 5z"/>
<path d="M3610 4084 c-13 -32 -13 -44 0 -44 5 0 7 7 4 15 -4 8 -2 15 3 15 5 0
9 9 9 20 0 27 -5 25 -16 -6z"/>
<path d="M1754 4086 c-7 -19 10 -66 25 -66 5 0 6 15 1 36 -10 44 -17 52 -26
30z"/>
<path d="M1845 4065 c-28 -22 -29 -25 -14 -40 16 -16 18 -15 34 19 10 20 16
39 13 41 -2 2 -17 -7 -33 -20z"/>
<path d="M2839 4073 c-13 -16 -12 -17 4 -4 16 13 21 21 13 21 -2 0 -10 -8 -17
-17z"/>
<path d="M2966 4047 c-32 -22 -76 -58 -97 -79 -37 -37 -78 -50 -80 -25 -3 26
3 43 24 67 21 23 21 24 1 7 -27 -22 -32 -22 -37 6 -2 12 -5 -27 -6 -88 -1 -60
-8 -135 -16 -165 -25 -92 -21 -100 25 -55 38 37 40 42 40 101 0 65 -11 87 -29
57 -9 -16 -10 -14 -11 9 0 33 17 45 36 26 20 -20 29 -108 15 -149 -16 -45 -91
-129 -92 -103 0 11 -7 -11 -14 -47 -7 -37 -22 -84 -33 -105 -25 -49 -111 -130
-158 -150 -32 -13 -39 -13 -77 4 -91 42 -187 173 -187 257 0 16 -6 25 -15 25
-8 0 -15 4 -15 10 0 5 -15 27 -34 47 -18 21 -36 47 -39 58 -2 11 -5 -6 -6 -37
-1 -72 -7 -73 -115 -18 -43 22 -87 40 -96 40 -10 0 -53 -27 -96 -60 -52 -40
-84 -58 -98 -55 -12 2 -48 7 -81 10 -68 8 -95 19 -95 40 0 8 -9 15 -20 15 -18
0 -18 -2 4 -24 13 -12 31 -26 40 -29 9 -4 23 -20 30 -37 7 -17 15 -27 19 -23
4 3 7 2 7 -4 0 -6 -7 -13 -15 -17 -10 -4 -25 9 -45 36 -17 22 -30 45 -30 50 0
11 -87 1 -117 -14 -13 -6 -23 -18 -23 -26 0 -17 -3 -16 -78 28 -36 21 -62 43
-64 54 -4 27 -28 33 -28 7 0 -12 -6 -21 -15 -21 -8 0 -15 5 -15 10 0 6 -4 10
-10 10 -5 0 -10 -7 -10 -15 0 -8 -4 -15 -10 -15 -32 0 11 45 52 55 16 4 25 11
22 16 -3 5 2 12 10 15 23 9 20 32 -9 70 -13 17 -26 46 -27 63 -2 29 -5 31 -40
31 -31 0 -41 -5 -50 -25 -11 -26 -32 -31 -57 -16 -10 6 -11 13 -2 29 18 33 13
69 -11 86 -33 24 -43 20 -78 -26 -29 -39 -31 -47 -25 -95 5 -40 2 -59 -11 -82
-25 -43 -13 -63 36 -60 46 4 58 -4 40 -26 -8 -9 -29 -15 -56 -15 -35 0 -50 7
-87 38 -36 32 -59 42 -126 56 -73 16 -85 22 -102 50 -22 36 -26 18 -4 -23 13
-25 84 -71 111 -71 5 0 14 -12 21 -26 9 -19 9 -26 0 -29 -23 -7 -123 -18 -164
-19 -47 -1 -49 -3 -29 -28 9 -12 27 -18 54 -18 65 0 74 -6 57 -40 -20 -40 -62
-69 -106 -76 -26 -5 -36 -10 -32 -20 10 -26 66 -15 132 27 35 22 65 38 67 37
9 -9 -52 -111 -77 -129 -34 -24 -38 -55 -9 -64 26 -8 60 13 97 61 41 52 75 63
176 57 51 -4 98 -1 117 5 42 15 66 2 75 -40 16 -72 52 -118 93 -118 l27 1 -31
13 c-58 25 -82 89 -49 132 8 10 15 31 15 47 0 15 4 27 10 27 12 0 30 -33 30
-57 0 -12 18 -25 54 -41 58 -25 101 -73 145 -164 22 -45 32 -53 68 -64 50 -14
74 -4 50 21 -24 24 -23 75 2 75 11 0 28 11 39 25 25 31 50 32 57 2 5 -19 12
-23 35 -19 28 4 28 4 14 38 -20 48 -18 65 14 104 20 24 34 32 46 27 15 -6 17
-18 15 -81 -2 -41 0 -78 4 -82 4 -4 7 23 7 60 0 51 3 67 13 63 7 -2 47 -12 88
-21 73 -17 77 -19 99 -59 13 -23 31 -47 39 -53 13 -10 13 -14 1 -30 -13 -17
-13 -18 1 -7 18 14 39 0 39 -27 0 -22 -40 -24 -40 -2 -1 11 -7 6 -17 -13 -19
-33 -18 -52 2 -75 7 -8 11 -33 10 -55 -5 -64 15 -134 38 -137 11 -2 22 -8 24
-15 3 -9 -4 -10 -29 -3 -18 6 -40 7 -50 5 -9 -4 -20 1 -26 11 -13 24 -30 9
-24 -21 4 -25 22 -45 22 -26 0 6 9 11 20 11 13 0 20 -7 20 -18 0 -11 11 -24
25 -30 21 -10 31 -9 53 6 14 9 23 11 19 5 -5 -7 -4 -13 2 -13 16 0 13 -32 -5
-58 -13 -19 -24 -22 -80 -22 l-64 0 0 -52 c1 -44 5 -56 25 -70 23 -18 24 -17
30 12 15 67 65 16 65 -65 0 -19 9 -43 21 -56 l20 -24 -6 38 c-5 29 -3 37 10
37 8 0 15 -7 15 -15 0 -8 9 -24 20 -35 11 -11 20 -31 20 -45 0 -14 4 -25 9
-25 22 0 101 132 101 170 0 11 -5 29 -12 39 -15 24 -4 51 22 51 11 0 20 5 20
10 0 7 -18 8 -48 4 l-48 -6 -13 57 c-17 74 -9 83 61 68 45 -9 61 -8 107 8 l53
18 30 -29 c16 -17 31 -30 34 -30 2 0 4 47 4 104 0 78 4 106 14 116 12 9 18 7
33 -9 22 -26 30 -26 38 -1 4 11 11 18 16 14 6 -3 17 0 26 8 15 12 16 9 9 -32
-25 -146 -25 -150 0 -150 26 0 24 3 49 -120 9 -41 19 -78 24 -83 9 -9 59 46
106 113 26 37 26 39 10 70 -18 35 -12 65 31 155 13 28 24 57 24 65 -1 8 -11
-7 -23 -33 -13 -26 -27 -44 -31 -40 -5 4 -7 1 -4 -7 3 -8 2 -24 -3 -35 -5 -15
-8 -8 -8 24 -1 35 5 50 29 78 17 18 30 38 30 43 0 13 -17 13 -25 0 -4 -6 -11
-8 -16 -4 -5 3 -9 2 -8 -3 3 -18 -2 -33 -11 -33 -5 0 -8 12 -5 28 2 15 7 48
10 75 4 29 10 45 17 41 6 -4 8 1 4 12 -3 11 -2 33 4 49 7 24 8 16 6 -36 -6
-121 10 -92 22 38 8 93 8 131 0 138 -8 7 -9 5 -4 -8 3 -10 3 -37 -1 -60 l-7
-42 -7 50 c-4 28 -7 75 -7 105 0 45 2 50 8 25 10 -41 13 -25 14 80 1 50 5 106
10 125 9 32 8 34 -7 19 -8 -9 -18 -29 -20 -45 -3 -16 -3 -3 -1 29 4 57 14 90
27 88 15 -2 5 16 -29 51 -19 21 -33 42 -29 48 3 5 1 10 -4 10 -20 0 -11 15 19
32 17 9 30 13 30 7 0 -6 5 -7 10 -4 6 4 8 10 6 14 -3 4 5 8 16 8 11 1 29 10
39 19 29 26 23 4 -8 -28 -34 -36 -26 -36 14 0 16 15 33 39 36 53 4 14 18 31
32 39 14 7 23 15 21 18 -3 2 -15 -3 -28 -12 -35 -25 -42 -19 -11 9 44 38 14
28 -51 -18z m-1911 -204 c-9 -71 -20 -93 -45 -93 -23 0 -25 8 -6 35 7 11 19
38 26 60 24 77 35 75 25 -2z m210 -35 c26 -40 27 -42 9 -55 -17 -12 -19 -10
-31 39 -7 29 -12 54 -13 56 -1 10 12 -4 35 -40z m-136 17 c27 -13 41 -49 41
-107 0 -25 -17 -23 -25 3 -4 11 -18 25 -31 31 -19 9 -24 19 -24 50 0 43 1 43
39 23z m1 -106 c11 -19 10 -20 -9 -9 -12 6 -21 15 -21 20 0 18 19 11 30 -11z
m430 -103 c0 -8 12 -28 26 -45 24 -29 28 -30 117 -33 l92 -3 -43 -28 c-26 -17
-64 -31 -94 -34 -60 -7 -73 -27 -35 -55 35 -25 34 -33 -5 -49 -18 -7 -36 -14
-39 -16 -4 -2 -9 10 -13 28 -6 29 -8 31 -40 25 -18 -4 -44 -2 -57 3 -23 8 -24
13 -24 102 0 89 1 94 25 106 35 18 90 17 90 -1z m1317 -68 c-3 -7 -5 -2 -5 12
0 14 2 19 5 13 2 -7 2 -19 0 -25z m-1570 -12 c-15 -31 -20 -27 -11 8 3 14 10
24 14 21 5 -3 3 -16 -3 -29z m967 -100 c81 -79 104 -116 71 -116 -8 0 -37 28
-66 63 -28 34 -62 74 -75 89 -21 25 -31 48 -20 48 2 0 43 -38 90 -84z m342
-307 c8 -14 -11 -33 -25 -25 -11 7 -4 36 9 36 5 0 12 -5 16 -11z m216 -201
c-7 -7 -12 -28 -12 -48 0 -27 -7 -42 -28 -60 -22 -19 -27 -30 -24 -57 3 -25 0
-33 -12 -33 -24 0 -32 47 -11 70 10 11 21 18 25 15 4 -2 7 9 7 24 0 26 53 115
62 105 3 -2 -1 -10 -7 -16z m-812 -198 c0 -11 -4 -20 -10 -20 -5 0 -10 9 -10
20 0 11 5 20 10 20 6 0 10 -9 10 -20z"/>
<path d="M1115 4023 c22 -3 46 -9 53 -15 9 -8 11 -7 6 6 -5 12 -18 16 -53 14
l-46 -1 40 -4z"/>
<path d="M3617 4013 c-4 -3 -7 -22 -6 -42 l1 -36 9 39 c9 39 8 52 -4 39z"/>
<path d="M1865 3990 c-3 -5 -13 -6 -22 -3 -11 4 -14 2 -11 -8 2 -8 14 -15 26
-17 12 -2 22 -9 22 -15 0 -6 7 -4 16 5 9 9 14 24 11 32 -7 18 -32 21 -42 6z"/>
<path d="M1170 3971 c0 -10 19 -25 25 -20 1 2 -3 10 -11 17 -8 7 -14 8 -14 3z"/>
<path d="M2200 3961 c0 -5 5 -13 10 -16 6 -3 10 -2 10 4 0 5 -4 13 -10 16 -5
3 -10 2 -10 -4z"/>
<path d="M3591 3954 c0 -11 3 -14 6 -6 3 7 2 16 -1 19 -3 4 -6 -2 -5 -13z"/>
<path d="M2046 3945 c-3 -8 -1 -15 4 -15 6 0 10 7 10 15 0 8 -2 15 -4 15 -2 0
-6 -7 -10 -15z"/>
<path d="M2005 3920 c-3 -5 -1 -10 4 -10 6 0 11 5 11 10 0 6 -2 10 -4 10 -3 0
-8 -4 -11 -10z"/>
<path d="M3580 3907 c0 -16 3 -17 15 -7 8 7 15 16 15 20 0 3 -7 7 -15 7 -8 0
-15 -9 -15 -20z"/>
<path d="M2066 3880 c3 -14 6 -33 8 -43 1 -9 7 -22 14 -29 9 -9 9 -15 -1 -27
-8 -10 -4 -9 16 3 19 13 27 27 27 47 0 27 20 43 20 17 0 -7 5 -5 11 5 21 36 8
51 -48 52 -50 0 -51 -1 -47 -25z"/>
<path d="M2177 3845 c-9 -66 0 -95 44 -136 22 -20 39 -32 39 -28 0 43 -37 168
-55 187 l-22 24 -6 -47z"/>
<path d="M4317 3862 c-12 -32 -43 -49 -131 -72 -43 -11 -111 -38 -151 -60 -40
-22 -85 -40 -100 -40 -24 0 -27 3 -23 25 l5 24 -27 -19 c-16 -11 -32 -20 -37
-20 -4 0 -20 -11 -35 -25 -25 -23 -28 -24 -62 -10 -19 8 -50 15 -69 15 -31 0
-35 -4 -63 -62 -16 -35 -44 -88 -61 -118 -18 -30 -33 -61 -33 -67 0 -7 -10
-23 -22 -35 l-23 -23 30 -3 c40 -5 100 14 158 49 26 16 52 27 58 24 5 -4 9 9
9 28 0 19 7 40 15 47 12 10 15 10 15 -1 0 -8 9 -31 20 -52 11 -20 20 -44 20
-52 0 -49 -67 -112 -92 -87 -9 9 -8 19 5 41 9 16 17 37 17 48 0 10 -9 -1 -21
-25 -32 -64 -9 -97 52 -72 32 14 59 55 59 91 0 32 38 71 59 60 25 -13 150 -21
156 -11 4 6 19 10 34 10 47 0 97 -27 119 -64 37 -62 91 -83 116 -43 9 14 6 22
-21 43 -29 22 -88 122 -78 132 2 2 32 -15 66 -37 38 -25 75 -41 93 -41 29 0
29 0 10 21 -10 12 -47 42 -82 67 -44 31 -60 48 -53 55 7 7 17 5 31 -8 11 -10
20 -13 20 -7 0 6 -6 13 -12 15 -7 3 4 6 24 6 55 1 86 19 99 58 6 19 8 37 5 40
-3 4 -6 1 -6 -5 0 -8 -7 -9 -25 -2 -16 6 -25 6 -25 0 0 -6 9 -10 20 -10 11 0
20 -6 20 -14 0 -15 -29 -26 -69 -26 -28 0 -91 39 -91 57 0 6 -10 13 -22 16
-18 3 -12 7 23 17 57 16 92 62 87 112 -3 30 -4 31 -11 10z m-717 -392 c0 -11
-7 -20 -15 -20 -8 0 -15 9 -15 20 0 11 7 20 15 20 8 0 15 -9 15 -20z"/>
<path d="M4235 3845 c-39 -32 -29 -32 15 0 19 14 30 25 24 25 -5 -1 -22 -12
-39 -25z"/>
<path d="M2036 3837 c3 -10 9 -15 12 -12 3 3 0 11 -7 18 -10 9 -11 8 -5 -6z"/>
<path d="M3567 3835 c-4 -11 -10 -27 -13 -35 -3 -8 1 -5 11 8 9 12 15 28 13
34 -3 7 -7 4 -11 -7z"/>
<path d="M2145 3820 c-3 -5 -1 -10 4 -10 6 0 11 5 11 10 0 6 -2 10 -4 10 -3 0
-8 -4 -11 -10z"/>
<path d="M4165 3820 c-13 -6 -15 -9 -5 -9 8 0 22 4 30 9 18 12 2 12 -25 0z"/>
<path d="M2948 3795 c4 -21 8 -24 31 -18 36 8 43 17 9 11 -19 -4 -28 -1 -28 8
0 7 -4 15 -9 18 -4 3 -6 -6 -3 -19z"/>
<path d="M1338 3763 c-2 -19 -10 -29 -28 -34 -24 -7 -24 -7 -2 -8 14 -1 22 -7
22 -19 0 -11 14 -24 37 -35 l38 -17 29 29 c30 30 29 44 -5 61 -13 7 -19 7 -19
0 0 -5 7 -10 16 -10 9 0 14 -7 12 -17 -2 -10 -12 -18 -23 -18 -16 0 -19 6 -17
30 2 19 -3 34 -15 43 -17 13 -16 14 5 7 13 -4 22 -2 22 4 0 6 -15 11 -34 11
-30 0 -35 -4 -38 -27z m29 -69 c-3 -3 -12 -4 -19 -1 -8 3 -5 6 6 6 11 1 17 -2
13 -5z"/>
<path d="M1953 3783 c9 -2 25 -2 35 0 9 3 1 5 -18 5 -19 0 -27 -2 -17 -5z"/>
<path d="M3080 3780 c0 -6 7 -10 15 -10 8 0 15 2 15 4 0 2 -7 6 -15 10 -8 3
-15 1 -15 -4z"/>
<path d="M2056 3761 c-3 -5 1 -11 9 -14 9 -4 12 -1 8 9 -6 16 -10 17 -17 5z"/>
<path d="M2956 3720 c-3 -25 -3 -159 1 -298 7 -210 10 -249 20 -223 6 17 7 29
2 25 -15 -9 -10 30 6 52 8 10 17 40 21 67 4 26 10 50 15 53 24 14 168 45 201
42 47 -3 60 13 51 61 -5 31 -4 34 16 28 16 -4 25 1 36 23 8 16 12 35 9 43 -3
9 3 16 15 20 26 7 27 27 2 27 -10 0 -48 -9 -85 -20 l-65 -21 -63 51 c-57 46
-67 51 -108 48 -44 -3 -45 -2 -56 32 l-11 35 -7 -45z"/>
<path d="M3155 3748 c11 -6 27 -16 35 -22 9 -6 5 -1 -8 12 -13 12 -28 22 -35
22 -7 0 -3 -6 8 -12z"/>
<path d="M3945 3750 c-19 -8 -19 -9 3 -9 12 -1 22 4 22 9 0 6 -1 10 -2 9 -2 0
-12 -4 -23 -9z"/>
<path d="M3693 3723 c9 -2 23 -2 30 0 6 3 -1 5 -18 5 -16 0 -22 -2 -12 -5z"/>
<path d="M3466 3683 c-6 -14 -5 -15 5 -6 7 7 10 15 7 18 -3 3 -9 -2 -12 -12z"/>
<path d="M1598 3683 c6 -2 18 -2 25 0 6 3 1 5 -13 5 -14 0 -19 -2 -12 -5z"/>
<path d="M4660 3644 c0 -3 16 -24 35 -47 19 -22 35 -44 35 -49 0 -21 -45 -4
-85 34 -27 24 -43 33 -38 23 6 -17 3 -17 -24 3 -17 12 -34 22 -37 22 -10 0 -6
-23 9 -55 l15 -30 -6 33 c-3 17 -3 32 0 32 3 0 21 -14 41 -31 19 -17 35 -25
35 -18 0 7 12 1 28 -14 15 -15 32 -27 36 -27 4 0 17 -10 27 -22 20 -23 20 -23
10 -1 -14 27 -14 46 -1 38 19 -12 10 6 -30 60 -38 52 -50 63 -50 49z"/>
<path d="M3396 3615 c-3 -9 -6 -22 -5 -28 0 -7 5 -1 10 12 5 13 8 26 5 28 -2
2 -6 -3 -10 -12z"/>
<path d="M3421 3604 c0 -11 3 -14 6 -6 3 7 2 16 -1 19 -3 4 -6 -2 -5 -13z"/>
<path d="M525 3580 c3 -5 8 -10 11 -10 2 0 4 5 4 10 0 6 -5 10 -11 10 -5 0 -7
-4 -4 -10z"/>
<path d="M670 3569 c0 -5 5 -7 10 -4 6 3 10 8 10 11 0 2 -4 4 -10 4 -5 0 -10
-5 -10 -11z"/>
<path d="M427 3563 c-11 -21 -29 -104 -23 -110 3 -3 6 2 6 13 0 10 9 38 20 62
10 23 15 42 10 42 -5 0 -11 -3 -13 -7z"/>
<path d="M623 3538 c-18 -11 -33 -24 -33 -29 0 -6 5 -5 13 1 6 5 23 19 37 30
32 25 24 24 -17 -2z"/>
<path d="M3392 3530 c-2 -29 13 -58 25 -47 4 5 2 11 -4 15 -6 4 -13 18 -16 32
l-4 25 -1 -25z"/>
<path d="M4800 3525 c13 -14 26 -25 28 -25 3 0 -5 11 -18 25 -13 14 -26 25
-28 25 -3 0 5 -11 18 -25z"/>
<path d="M4376 3524 c12 -11 24 -26 28 -34 4 -10 5 -9 3 4 -1 10 -13 25 -27
34 l-25 14 21 -18z"/>
<path d="M4755 3500 c3 -5 8 -10 11 -10 2 0 4 5 4 10 0 6 -5 10 -11 10 -5 0
-7 -4 -4 -10z"/>
<path d="M217 3418 c-3 -13 -14 -48 -25 -78 -11 -30 -22 -71 -26 -90 -3 -19 7
3 23 50 l29 85 -6 -72 c-3 -41 -1 -73 4 -73 5 0 26 27 47 61 21 34 34 58 28
55 -5 -4 -20 -24 -32 -46 -13 -22 -27 -40 -31 -40 -5 0 -6 38 -2 85 6 82 2
110 -9 63z"/>
<path d="M387 3403 c-9 -50 -3 -51 16 -3 12 31 13 40 3 40 -8 0 -16 -17 -19
-37z"/>
<path d="M506 3388 c-9 -12 -16 -29 -15 -38 0 -10 3 -9 9 5 8 18 9 18 10 -5 2
-19 4 -16 11 14 11 47 6 55 -15 24z"/>
<path d="M133 3365 c-3 -9 -3 -18 -1 -21 3 -3 8 4 11 16 6 23 -1 27 -10 5z"/>
<path d="M4947 3329 c4 -13 8 -18 11 -10 2 7 -1 18 -6 23 -8 8 -9 4 -5 -13z"/>
<path d="M5024 3325 c-4 -14 -4 -29 0 -32 3 -4 6 3 6 13 0 11 5 25 12 32 9 9
9 12 0 12 -6 0 -14 -11 -18 -25z"/>
<path d="M481 3320 c-1 -18 -42 -80 -89 -136 -32 -38 -33 -38 -26 -10 l7 28
-55 -43 c-59 -47 -72 -68 -15 -25 43 33 52 33 31 1 -9 -13 -14 -29 -12 -35 3
-11 134 144 156 186 7 14 11 31 8 37 -3 8 -5 6 -5 -3z"/>
<path d="M131 3304 c0 -11 3 -14 6 -6 3 7 2 16 -1 19 -3 4 -6 -2 -5 -13z"/>
<path d="M502 3265 c0 -16 2 -22 5 -12 2 9 2 23 0 30 -3 6 -5 -1 -5 -18z"/>
<path d="M1644 3268 l-19 -23 23 19 c21 18 27 26 19 26 -2 0 -12 -10 -23 -22z"/>
<path d="M3368 3274 c-16 -8 -28 -21 -28 -29 0 -9 -6 -12 -17 -9 -15 5 -15 4
-3 -4 17 -13 30 -7 30 13 0 9 6 12 18 8 9 -3 14 -3 10 2 -4 4 0 14 10 21 23
18 14 17 -20 -2z"/>
<path d="M4979 3225 c-20 -22 -55 -73 -78 -112 -23 -40 -46 -73 -51 -73 -5 0
-11 12 -13 28 -3 22 -4 20 -6 -10 0 -21 3 -38 7 -38 14 0 47 42 90 117 23 39
54 80 68 90 15 11 25 24 23 29 -2 5 -20 -9 -40 -31z"/>
<path d="M4879 3235 c-33 -21 -77 -90 -66 -101 3 -3 9 8 15 23 13 35 39 70 46
62 4 -3 -3 -26 -14 -50 -11 -24 -20 -51 -20 -59 0 -8 11 11 25 44 13 32 34 69
46 82 28 30 15 30 -32 -1z"/>
<path d="M93 3242 c-8 -5 -9 -13 -3 -22 7 -12 10 -12 16 3 8 21 3 29 -13 19z"/>
<path d="M648 3243 c7 -3 16 -2 19 1 4 3 -2 6 -13 5 -11 0 -14 -3 -6 -6z"/>
<path d="M710 3238 c0 -9 -6 -19 -12 -21 -10 -4 -10 -6 0 -6 14 -1 28 26 18
36 -3 4 -6 -1 -6 -9z"/>
<path d="M595 3230 c-8 -13 5 -13 25 0 13 8 13 10 -2 10 -9 0 -20 -4 -23 -10z"/>
<path d="M751 3214 c-19 -13 -29 -24 -23 -24 6 0 24 11 39 25 35 31 28 31 -16
-1z"/>
<path d="M4402 3223 c-14 -26 -44 -143 -39 -156 1 -5 9 16 16 49 7 32 19 72
27 88 15 32 12 49 -4 19z"/>
<path d="M120 3216 c0 -8 9 -20 20 -26 12 -7 20 -21 20 -38 0 -66 27 -90 70
-62 11 8 7 9 -14 4 -33 -8 -46 6 -46 52 0 19 -10 41 -25 58 -17 19 -25 22 -25
12z"/>
<path d="M510 3221 c0 -18 29 -25 53 -12 l22 11 -23 -6 c-13 -3 -29 0 -37 6
-11 9 -15 9 -15 1z"/>
<path d="M1840 3222 c0 -14 41 -26 67 -19 11 3 6 5 -12 6 -17 0 -36 6 -43 13
-9 9 -12 9 -12 0z"/>
<path d="M4267 3203 c-7 -36 0 -43 12 -12 8 20 10 21 16 7 4 -9 -2 -37 -14
-63 -11 -25 -16 -43 -11 -40 4 3 16 25 25 49 13 34 14 48 6 65 -16 29 -28 26
-34 -6z"/>
<path d="M5061 3186 c-1 -30 3 -46 8 -40 5 5 6 27 1 49 l-8 40 -1 -49z"/>
<path d="M50 3208 c0 -7 -3 -30 -6 -50 -5 -30 -3 -38 8 -38 9 0 19 -16 26 -42
l11 -43 -5 40 c-3 22 -11 49 -18 60 -7 11 -11 35 -8 53 2 17 2 32 -2 32 -3 0
-6 -6 -6 -12z"/>
<path d="M776 3193 c-8 -20 -5 -22 15 -14 14 5 15 8 4 18 -10 10 -15 9 -19 -4z"/>
<path d="M660 3185 c-13 -16 -3 -20 24 -9 9 3 13 10 10 15 -8 13 -20 11 -34
-6z"/>
<path d="M900 3189 c0 -5 5 -7 10 -4 6 3 10 8 10 11 0 2 -4 4 -10 4 -5 0 -10
-5 -10 -11z"/>
<path d="M1747 3159 c-23 -59 -22 -71 9 -105 50 -56 85 -124 48 -93 -14 12
-16 11 -12 -6 2 -11 10 -19 17 -17 7 1 19 -2 26 -8 17 -14 35 16 34 57 l-1 28
-11 -33 -12 -33 -23 46 c-12 25 -22 64 -22 87 0 51 13 42 14 -10 1 -33 4 -37
26 -37 18 0 26 6 28 23 2 15 -2 22 -12 22 -10 0 -16 9 -16 25 0 18 -10 31 -32
45 -18 11 -35 27 -38 36 -5 12 -11 4 -23 -27z"/>
<path d="M1945 3174 c16 -24 16 -26 -4 -31 -24 -6 -26 -14 -10 -30 9 -9 15 -9
24 0 13 14 26 79 14 71 -4 -2 -10 0 -14 6 -3 5 -11 10 -17 10 -6 0 -3 -12 7
-26z"/>
<path d="M3254 3175 c-13 -20 -14 -28 -4 -40 7 -8 16 -15 21 -15 14 0 11 38
-3 43 -10 3 -10 7 1 20 7 10 11 17 7 17 -3 0 -13 -11 -22 -25z m11 -25 c3 -5
1 -10 -4 -10 -6 0 -11 5 -11 10 0 6 2 10 4 10 3 0 8 -4 11 -10z"/>
<path d="M4715 3183 c-3 -10 -30 -45 -61 -77 -54 -59 -55 -60 -88 -48 -40 15
-46 15 -46 1 0 -5 4 -8 9 -5 4 3 23 0 40 -7 33 -12 33 -12 97 58 73 81 82 70
28 -34 -22 -41 -34 -76 -30 -86 8 -23 26 -9 26 21 0 14 4 22 10 19 6 -3 10 -2
10 4 0 5 -5 13 -10 16 -6 4 0 23 15 49 25 43 33 90 16 101 -5 3 -12 -3 -16
-12z m-38 -195 c-3 -8 -6 -5 -6 6 -1 11 2 17 5 13 3 -3 4 -12 1 -19z"/>
<path d="M4412 3160 c0 -19 2 -27 5 -17 2 9 2 25 0 35 -3 9 -5 1 -5 -18z"/>
<path d="M5087 3158 c8 -46 13 -48 13 -5 0 21 -4 37 -10 37 -5 0 -7 -14 -3
-32z"/>
<path d="M4235 3134 c-9 -14 -15 -27 -13 -30 2 -2 12 10 22 26 21 37 15 40 -9
4z"/>
<path d="M3004 3129 c-16 -18 -19 -19 -30 -4 -10 13 -12 12 -17 -11 -3 -16 -1
-22 5 -16 6 6 21 4 40 -6 33 -16 40 -12 68 38 14 26 -43 25 -66 -1z"/>
<path d="M1880 3119 c0 -11 4 -18 10 -14 5 3 16 -7 24 -22 8 -15 15 -23 16
-18 0 12 -37 75 -45 75 -3 0 -5 -9 -5 -21z"/>
<path d="M1973 3109 c-24 -28 -30 -44 -14 -34 6 3 15 -3 21 -12 10 -16 10 -15
5 4 -3 13 -1 31 5 40 10 16 11 16 7 -3 -3 -12 -1 -28 4 -35 6 -10 9 -5 9 16 0
48 -12 55 -37 24z"/>
<path d="M3899 3087 c-14 -17 -32 -43 -39 -56 l-13 -24 -13 29 c-13 26 -14 26
-9 4 2 -14 5 -33 5 -42 0 -28 15 -21 32 16 9 18 31 50 48 70 18 20 28 36 24
36 -5 0 -21 -15 -35 -33z"/>
<path d="M4401 3104 c0 -11 3 -14 6 -6 3 7 2 16 -1 19 -3 4 -6 -2 -5 -13z"/>
<path d="M4772 3049 c-33 -70 -47 -83 -55 -51 -3 9 -5 2 -6 -17 -1 -34 -1 -34
19 -16 21 19 86 142 79 149 -2 2 -19 -27 -37 -65z"/>
<path d="M3230 3106 c0 -2 7 -9 15 -16 13 -11 14 -10 9 4 -5 14 -24 23 -24 12z"/>
<path d="M4150 3048 c-30 -27 -48 -46 -39 -41 24 13 103 82 98 87 -2 2 -29
-19 -59 -46z"/>
<path d="M3220 3081 c0 -5 5 -13 10 -16 6 -3 10 -2 10 4 0 5 -4 13 -10 16 -5
3 -10 2 -10 -4z"/>
<path d="M3751 3059 l-23 -31 26 17 c14 10 26 24 26 31 0 20 -3 18 -29 -17z"/>
<path d="M4082 3060 c0 -19 2 -27 5 -17 2 9 2 25 0 35 -3 9 -5 1 -5 -18z"/>
<path d="M3185 3069 c-4 -6 -5 -12 -2 -15 2 -3 7 2 10 11 7 17 1 20 -8 4z"/>
<path d="M1893 3025 c0 -27 2 -38 4 -22 2 15 2 37 0 50 -2 12 -4 0 -4 -28z"/>
<path d="M4402 3025 c-2 -76 6 -82 67 -45 28 17 51 39 51 48 0 13 -3 12 -15
-5 -8 -11 -30 -30 -50 -41 l-35 -21 -5 22 c-2 12 -6 38 -8 57 -3 26 -4 23 -5
-15z"/>
<path d="M2550 2967 c0 -106 -22 -184 -52 -189 -13 -2 -39 -25 -60 -53 -44
-59 -55 -64 -61 -33 -3 17 -5 15 -6 -9 -1 -38 22 -45 39 -12 22 40 81 98 95
93 20 -8 45 57 51 131 2 33 6 81 9 108 2 26 0 47 -5 47 -6 0 -10 -37 -10 -83z"/>
<path d="M2612 3015 c-19 -21 -33 -29 -36 -22 -2 7 -5 -4 -5 -23 l0 -35 19 37
c35 65 41 57 36 -49 l-5 -98 9 85 c5 47 11 97 14 113 3 15 4 27 2 27 -2 0 -18
-16 -34 -35z"/>
<path d="M3163 3021 c-7 -11 -9 -22 -6 -25 10 -10 33 -7 33 4 0 5 -8 6 -17 3
-16 -6 -16 -5 -4 10 8 10 12 19 10 22 -3 2 -10 -4 -16 -14z"/>
<path d="M741 3014 c0 -11 3 -14 6 -6 3 7 2 16 -1 19 -3 4 -6 -2 -5 -13z"/>
<path d="M802 3000 l-23 -30 28 0 c20 0 24 3 14 9 -10 7 -11 13 -2 30 17 30 8
26 -17 -9z"/>
<path d="M3202 3010 c0 -14 2 -19 5 -12 2 6 2 18 0 25 -3 6 -5 1 -5 -13z"/>
<path d="M3747 3013 c-11 -13 -16 -45 -19 -118 -2 -72 -9 -111 -22 -138 -10
-21 -16 -41 -12 -44 7 -8 46 26 46 40 0 6 -7 2 -15 -9 -18 -23 -18 -10 0 36
12 32 14 33 15 10 2 -19 4 -15 11 15 12 58 11 104 -1 85 -7 -11 -10 0 -10 38
0 32 6 62 16 77 19 29 14 33 -9 8z"/>
<path d="M3911 3014 c0 -11 3 -14 6 -6 3 7 2 16 -1 19 -3 4 -6 -2 -5 -13z"/>
<path d="M1942 3005 c0 -11 4 -31 8 -45 6 -20 8 -21 8 -5 0 11 -4 31 -8 45 -6
20 -8 21 -8 5z"/>
<path d="M3810 3008 c0 -8 -11 -32 -25 -52 -32 -48 -32 -60 0 -16 27 37 40 68
31 77 -3 4 -6 -1 -6 -9z"/>
<path d="M3519 2959 c-15 -48 -15 -49 3 -29 12 13 18 31 16 49 -3 27 -4 25
-19 -20z"/>
<path d="M4055 2972 c-8 -23 0 -24 18 -4 14 15 15 19 2 19 -8 0 -17 -7 -20
-15z"/>
<path d="M4341 2964 c0 -11 3 -14 6 -6 3 7 2 16 -1 19 -3 4 -6 -2 -5 -13z"/>
<path d="M55 2960 c-3 -6 -3 -20 1 -33 4 -12 7 -31 6 -42 -2 -18 -2 -18 8 -3
8 12 8 24 0 37 -14 28 -12 44 5 37 8 -3 15 -1 15 4 0 13 -27 13 -35 0z"/>
<path d="M3702 2945 c0 -16 2 -22 5 -12 2 9 2 23 0 30 -3 6 -5 -1 -5 -18z"/>
<path d="M3902 2950 c0 -14 2 -19 5 -12 2 6 2 18 0 25 -3 6 -5 1 -5 -13z"/>
<path d="M1880 2940 c0 -10 -19 -38 -42 -61 -24 -23 -33 -37 -22 -31 31 17 74
70 74 93 0 10 -2 19 -5 19 -3 0 -5 -9 -5 -20z"/>
<path d="M3120 2945 c0 -8 -8 -19 -17 -22 -30 -11 -40 -27 -32 -48 7 -19 8
-19 8 -1 1 11 15 31 33 46 21 18 28 29 20 34 -7 4 -12 1 -12 -9z"/>
<path d="M5071 2944 c0 -11 3 -14 6 -6 3 7 2 16 -1 19 -3 4 -6 -2 -5 -13z"/>
<path d="M925 2939 c-9 -14 0 -22 18 -17 13 2 13 5 2 15 -10 9 -16 9 -20 2z"/>
<path d="M1731 2924 c0 -11 3 -14 6 -6 3 7 2 16 -1 19 -3 4 -6 -2 -5 -13z"/>
<path d="M3955 2884 c-39 -47 -50 -48 -58 -4 l-4 25 -1 -25 c-1 -14 2 -31 7
-39 8 -12 12 -13 26 -1 19 16 79 90 72 90 -3 0 -21 -21 -42 -46z"/>
<path d="M1963 2875 c0 -22 2 -30 4 -17 2 12 2 30 0 40 -3 9 -5 -1 -4 -23z"/>
<path d="M3475 2873 c-10 -16 -29 -38 -44 -51 -19 -17 -20 -20 -6 -13 24 11
48 37 64 69 16 31 7 28 -14 -5z"/>
<path d="M3679 2883 c-13 -16 -12 -17 4 -4 9 7 17 15 17 17 0 8 -8 3 -21 -13z"/>
<path d="M1159 2857 c-6 -44 -2 -51 17 -32 16 15 19 29 5 20 -5 -3 -11 7 -13
22 -3 25 -4 23 -9 -10z"/>
<path d="M1740 2873 c0 -10 -3 -28 -6 -40 -5 -18 -2 -23 12 -23 11 0 26 5 34
10 11 8 8 9 -12 4 -26 -6 -27 -5 -21 30 3 20 3 36 -1 36 -3 0 -6 -8 -6 -17z"/>
<path d="M2657 2873 c-4 -3 -7 -16 -7 -29 0 -12 -6 -25 -12 -27 -8 -3 -6 -6 5
-6 13 -1 17 7 17 31 0 50 16 20 29 -56 14 -82 52 -162 81 -171 13 -4 31 0 45
9 35 23 31 29 -4 8 -25 -14 -31 -14 -46 -2 -26 21 -52 79 -64 145 -7 33 -14
70 -17 83 -4 22 -15 28 -27 15z"/>
<path d="M3422 2860 c0 -14 2 -19 5 -12 2 6 2 18 0 25 -3 6 -5 1 -5 -13z"/>
<path d="M3497 2845 c-17 -36 -17 -36 4 -24 20 10 21 9 15 -15 -3 -14 -4 -26
-1 -26 10 0 85 40 85 45 0 3 -13 -1 -30 -10 -37 -19 -40 -19 -40 5 0 11 -5 20
-11 20 -6 0 -8 9 -4 20 10 32 0 23 -18 -15z"/>
<path d="M61 2844 c0 -11 3 -14 6 -6 3 7 2 16 -1 19 -3 4 -6 -2 -5 -13z"/>
<path d="M3021 2839 c-7 -12 -10 -23 -8 -26 3 -3 11 5 17 17 6 12 10 23 8 25
-2 2 -10 -5 -17 -16z"/>
<path d="M3310 2810 c12 -7 12 -12 -5 -29 -10 -12 -16 -24 -12 -27 6 -6 97 32
97 41 0 3 -13 -1 -30 -10 -38 -20 -57 -20 -40 0 13 15 6 35 -13 35 -7 0 -6 -4
3 -10z"/>
<path d="M1181 2793 c0 -12 -4 -29 -8 -39 -6 -16 -4 -16 20 2 14 10 27 23 27
28 0 5 -6 3 -14 -3 -12 -10 -15 -8 -19 11 -4 22 -4 22 -6 1z"/>
<path d="M1232 2755 c-29 -59 -28 -64 6 -33 15 14 38 31 52 38 14 8 20 15 13
17 -7 3 -22 -5 -34 -16 -29 -27 -37 -19 -15 14 9 14 13 25 8 25 -4 0 -18 -20
-30 -45z"/>
<path d="M1966 2724 c0 -40 3 -76 7 -80 4 -4 7 27 7 69 0 42 -3 78 -7 80 -5 3
-8 -28 -7 -69z"/>
<path d="M3032 2770 c0 -14 2 -19 5 -12 2 6 2 18 0 25 -3 6 -5 1 -5 -13z"/>
<path d="M2967 2763 c9 -3 4 -22 -17 -64 -17 -32 -26 -59 -21 -59 6 0 13 5 16
10 14 22 25 7 25 -33 0 -24 3 -46 6 -50 7 -6 64 19 64 29 0 2 -9 0 -19 -6 -33
-17 -41 -12 -41 30 0 25 -6 42 -16 48 -14 8 -14 13 5 49 20 40 19 54 -3 52 -6
0 -6 -3 1 -6z"/>
<path d="M2356 2731 c-9 -9 -16 -26 -15 -37 0 -14 3 -12 10 8 6 15 18 28 27
30 11 2 13 6 6 10 -6 4 -19 -1 -28 -11z"/>
<path d="M2890 2708 c-29 -38 -30 -40 -6 -18 25 23 52 60 43 60 -2 0 -19 -19
-37 -42z"/>
<path d="M3000 2730 c0 -5 5 -10 11 -10 5 0 7 5 4 10 -3 6 -8 10 -11 10 -2 0
-4 -4 -4 -10z"/>
<path d="M2060 2675 c0 -21 -22 -65 -32 -65 -5 0 -12 10 -17 22 l-8 22 -5 -22
c-4 -13 0 -29 9 -38 18 -18 15 -20 47 36 17 29 26 38 26 26 0 -11 3 -17 6 -13
8 8 -5 47 -17 47 -5 0 -9 -7 -9 -15z"/>
<path d="M2327 2634 c-4 -23 -23 -65 -42 -94 -45 -67 -46 -80 0 -16 38 53 59
106 53 133 -2 10 -7 -1 -11 -23z"/>
<path d="M4886 2662 c-2 -4 11 -6 30 -4 19 2 34 6 34 8 0 8 -59 4 -64 -4z"/>
<path d="M4807 2633 c-12 -12 -7 -33 7 -33 8 0 17 -6 19 -12 3 -8 6 -6 6 5 1
9 -6 17 -14 17 -18 0 -20 16 -2 23 6 3 7 6 1 6 -6 1 -14 -2 -17 -6z"/>
<path d="M2092 2601 c-1 -22 7 -47 21 -68 24 -36 41 -42 51 -17 10 27 26 5 26
-37 0 -21 4 -39 8 -39 10 0 0 79 -13 99 -6 11 -12 9 -25 -9 l-17 -22 -21 29
c-11 16 -22 44 -25 63 l-4 35 -1 -34z"/>
<path d="M673 2520 c9 -6 15 -15 12 -20 -3 -4 4 -6 16 -3 24 7 15 18 -21 27
-21 6 -22 5 -7 -4z"/>
<path d="M3945 2481 c-108 -37 -145 -58 -144 -79 1 -15 2 -15 6 0 4 17 60 43
153 73 30 10 59 21 65 26 12 12 11 12 -80 -20z"/>
<path d="M4052 2478 c-10 -28 -9 -35 5 -48 15 -14 16 -13 4 2 -10 14 -10 21 3
40 17 25 20 38 8 38 -4 0 -13 -14 -20 -32z"/>
<path d="M4729 2483 c-13 -16 -12 -17 4 -4 9 7 17 15 17 17 0 8 -8 3 -21 -13z"/>
<path d="M717 2429 c7 -7 15 -10 18 -7 3 3 -2 9 -12 12 -14 6 -15 5 -6 -5z"/>
<path d="M795 2399 c17 -5 74 -13 128 -16 53 -3 97 -10 97 -15 0 -5 5 -6 10
-3 24 15 -5 22 -102 28 -57 4 -116 9 -133 12 l-30 5 30 -11z"/>
<path d="M3908 2391 c-10 -10 -18 -25 -18 -33 0 -9 -7 -21 -15 -28 -17 -14
-20 -40 -5 -40 5 0 24 9 42 20 28 17 33 25 33 60 0 43 -10 49 -37 21z"/>
<path d="M4210 2375 c14 -8 30 -14 35 -14 6 0 -1 6 -15 14 -14 8 -29 14 -35
14 -5 0 1 -6 15 -14z"/>
<path d="M3853 2369 c1 -6 -26 -22 -60 -36 -35 -15 -61 -29 -58 -31 8 -9 135
52 135 65 0 7 -4 13 -10 13 -5 0 -9 -5 -7 -11z"/>
<path d="M978 2353 c6 -2 18 -2 25 0 6 3 1 5 -13 5 -14 0 -19 -2 -12 -5z"/>
<path d="M873 2343 c15 -2 37 -2 50 0 12 2 0 4 -28 4 -27 0 -38 -2 -22 -4z"/>
<path d="M4438 2343 c6 -2 18 -2 25 0 6 3 1 5 -13 5 -14 0 -19 -2 -12 -5z"/>
<path d="M797 2333 c-4 -3 -7 -11 -7 -17 0 -7 3 -7 8 0 4 7 16 14 27 17 19 5
19 5 -1 6 -11 0 -24 -2 -27 -6z"/>
<path d="M2686 2303 c18 -2 40 -13 50 -24 23 -26 60 -24 125 5 66 30 59 34
-11 6 -28 -11 -59 -20 -69 -20 -10 0 -30 9 -44 20 -14 11 -38 19 -54 18 -27
-1 -27 -1 3 -5z"/>
<path d="M2948 2303 c7 -3 16 -2 19 1 4 3 -2 6 -13 5 -11 0 -14 -3 -6 -6z"/>
<path d="M2456 2250 c-69 -62 -107 -81 -176 -90 l-55 -7 45 -1 c59 -2 118 26
181 85 49 46 54 48 123 54 l71 6 -67 1 -68 2 -54 -50z"/>
<path d="M2980 2296 c0 -7 134 -86 146 -86 5 0 -4 8 -21 18 -83 49 -125 72
-125 68z"/>
<path d="M3673 2283 c-15 -6 -17 -33 -3 -33 6 0 10 6 10 14 0 8 6 17 13 19 6
3 8 5 2 5 -5 0 -16 -2 -22 -5z"/>
<path d="M2646 2237 c-22 -23 -70 -74 -105 -112 l-64 -69 27 -80 c14 -45 31
-115 36 -156 6 -41 19 -92 30 -112 18 -35 18 -38 2 -47 -45 -26 -45 -27 -28
-59 21 -41 20 -71 -4 -107 -28 -43 -26 -90 6 -122 26 -26 26 -29 15 -74 -12
-45 -11 -51 15 -98 28 -52 59 -91 72 -91 5 0 13 5 19 11 15 15 33 3 33 -21 0
-38 -22 -67 -59 -78 -20 -6 -51 -25 -70 -42 l-34 -31 8 -72 c14 -129 11 -169
-15 -230 -22 -53 -23 -61 -11 -106 7 -28 10 -68 6 -93 -11 -75 25 -129 64 -94
10 9 24 16 33 16 8 0 25 12 39 27 13 15 16 21 7 14 -10 -7 -18 -10 -18 -6 0 4
-7 2 -16 -6 -14 -11 -15 -9 -8 26 5 27 4 36 -5 31 -6 -4 -11 -20 -11 -36 0
-28 -2 -29 -32 -23 -43 8 -42 6 -27 47 11 31 11 41 -4 71 -23 48 -21 79 9 150
38 88 38 93 19 134 -15 35 -16 41 -1 69 26 51 44 62 96 62 54 0 60 7 60 71 0
47 21 52 47 12 l18 -27 7 44 c4 23 10 45 13 49 3 3 22 -11 41 -32 39 -41 40
-42 98 -25 44 12 146 101 146 127 0 8 11 27 25 41 l25 26 -25 34 c-14 19 -28
57 -31 83 -6 40 -3 53 15 77 25 35 26 47 5 89 -15 29 -15 34 2 59 54 80 57 90
52 212 -4 94 -11 132 -36 205 -27 81 -36 125 -33 163 1 18 48 15 59 -4 6 -11
11 -13 16 -5 4 6 -1 19 -11 30 -21 22 -96 61 -118 61 -8 0 -15 5 -15 11 0 6
-9 8 -20 4 -15 -5 -20 -2 -20 13 0 11 -7 23 -16 26 -22 9 -23 8 -17 -15 7 -27
-19 -49 -59 -49 -21 0 -29 6 -34 26 -5 18 -11 23 -23 19 -45 -17 -72 -16 -106
4 -20 11 -39 21 -42 21 -3 0 -24 -19 -47 -43z"/>
<path d="M2580 2260 c0 -5 7 -10 15 -10 8 0 15 5 15 10 0 6 -7 10 -15 10 -8 0
-15 -4 -15 -10z"/>
<path d="M960 2257 c0 -7 121 -49 126 -44 3 3 -19 13 -48 22 -29 10 -59 20
-65 23 -7 2 -13 2 -13 -1z"/>
<path d="M2484 2225 c-22 -19 -34 -34 -29 -34 6 0 26 15 45 34 44 45 33 45
-16 0z"/>
<path d="M3977 2243 c-3 -5 -2 -15 2 -22 7 -10 10 -10 16 -1 4 6 3 16 -3 22
-5 5 -12 6 -15 1z"/>
<path d="M3347 2233 c-4 -3 -7 -16 -6 -27 0 -19 1 -19 10 3 10 24 8 36 -4 24z"/>
<path d="M3518 2233 c7 -3 16 -2 19 1 4 3 -2 6 -13 5 -11 0 -14 -3 -6 -6z"/>
<path d="M3160 2185 c13 -14 27 -25 32 -25 5 0 -3 11 -18 25 -15 14 -29 25
-32 25 -3 0 5 -11 18 -25z"/>
<path d="M1160 2175 c14 -8 30 -14 35 -14 6 0 -1 6 -15 14 -14 8 -29 14 -35
14 -5 0 1 -6 15 -14z"/>
<path d="M2100 2160 c0 -5 5 -10 10 -10 6 0 10 5 10 10 0 6 -4 10 -10 10 -5 0
-10 -4 -10 -10z"/>
<path d="M2148 2163 c12 -2 30 -2 40 0 9 3 -1 5 -23 4 -22 0 -30 -2 -17 -4z"/>
<path d="M2411 2154 c0 -11 3 -14 6 -6 3 7 2 16 -1 19 -3 4 -6 -2 -5 -13z"/>
<path d="M1218 2153 c7 -3 16 -2 19 1 4 3 -2 6 -13 5 -11 0 -14 -3 -6 -6z"/>
<path d="M1255 2145 c6 -2 53 -5 105 -8 52 -2 84 -1 70 4 -24 7 -196 11 -175
4z"/>
<path d="M2156 2116 c-4 -16 -19 -28 -52 -41 -26 -10 -71 -40 -102 -67 l-55
-50 -62 4 -63 4 -12 -40 c-8 -25 -9 -66 -5 -117 l7 -78 86 69 c105 82 138 115
123 125 -14 8 -14 25 -1 25 6 0 10 -7 10 -15 0 -24 13 -18 55 25 33 33 36 41
25 55 -10 12 -11 18 -1 28 10 9 15 8 25 -5 12 -16 16 -14 49 20 40 40 47 66
21 76 -29 11 -42 6 -48 -18z m-196 -241 c0 -8 -4 -15 -10 -15 -5 0 -10 7 -10
15 0 8 5 15 10 15 6 0 10 -7 10 -15z"/>
<path d="M2347 2122 c-19 -20 -23 -37 -7 -27 10 6 33 45 27 45 -2 0 -11 -8
-20 -18z"/>
<path d="M4300 2125 c0 -8 -7 -18 -15 -21 -19 -8 -32 -94 -15 -104 7 -5 22 -3
32 3 15 10 18 19 13 45 -4 19 -2 32 3 29 4 -3 6 7 4 24 -5 31 -22 51 -22 24z"/>
<path d="M1196 2115 c-9 -26 -7 -32 5 -12 6 10 9 21 6 23 -2 3 -7 -2 -11 -11z"/>
<path d="M1493 2123 c23 -4 27 -8 21 -26 -6 -21 -6 -21 20 2 14 14 26 26 26
28 0 2 -21 2 -47 2 -31 -1 -38 -4 -20 -6z"/>
<path d="M1222 2095 c-19 -42 -14 -53 8 -17 22 36 24 42 12 42 -5 0 -14 -11
-20 -25z"/>
<path d="M4172 2105 c-3 -32 10 -66 22 -62 6 2 19 0 28 -4 11 -6 19 -5 24 3 4
6 2 14 -4 16 -7 2 -12 17 -12 34 0 22 -4 29 -17 26 -9 -2 -19 -10 -21 -18 -5
-13 -3 -13 11 -1 15 11 17 11 17 -2 0 -8 -9 -17 -19 -20 -15 -4 -21 1 -24 22
-3 17 -4 19 -5 6z"/>
<path d="M1267 2092 c-18 -20 -22 -32 -9 -32 4 0 12 11 19 25 13 30 12 31 -10
7z"/>
<path d="M1300 2063 c-12 -27 -30 -59 -39 -73 -16 -24 -78 -162 -101 -224 -9
-26 -9 -27 5 -16 8 7 15 18 15 24 0 7 20 53 45 104 25 50 45 94 45 98 0 3 16
33 35 65 38 65 39 69 26 69 -5 0 -19 -21 -31 -47z"/>
<path d="M1335 2053 c-84 -179 -115 -251 -115 -261 1 -9 60 102 85 158 11 25
22 47 26 50 3 3 18 29 32 58 19 38 23 52 12 52 -7 0 -26 -26 -40 -57z"/>
<path d="M2065 2088 c-22 -11 -59 -38 -82 -59 -24 -22 -52 -39 -64 -39 -12 0
-20 -3 -16 -6 12 -13 56 7 84 37 15 17 53 43 83 59 30 16 51 29 45 29 -5 0
-28 -9 -50 -21z"/>
<path d="M3305 2057 c-57 -62 -58 -64 -42 -105 8 -20 12 -43 9 -51 -3 -8 0
-11 6 -7 6 3 14 -3 17 -15 4 -13 2 -25 -5 -29 -9 -6 -9 -10 2 -16 8 -5 18 -16
21 -24 3 -8 6 0 6 19 1 18 -8 49 -20 67 -19 32 -19 74 0 74 9 0 31 -68 31 -94
0 -9 9 -35 21 -57 23 -47 21 -55 -13 -39 -22 11 -22 10 -4 -4 11 -9 35 -19 54
-22 19 -4 47 -13 61 -20 14 -8 33 -14 41 -13 8 0 1 7 -17 14 -42 19 -72 64
-88 133 -8 31 -13 57 -12 58 1 0 18 10 39 21 l36 21 5 -26 c3 -15 16 -54 31
-87 14 -33 26 -76 26 -95 l1 -35 24 30 c31 37 40 77 24 106 -10 20 -9 25 11
41 18 15 21 24 16 52 -4 19 -15 44 -24 57 -16 19 -21 20 -39 9 -18 -12 -24
-11 -38 4 -10 9 -41 28 -69 41 -43 21 -48 22 -27 5 13 -11 30 -20 38 -20 12 0
14 -8 8 -37 -4 -21 -8 -39 -8 -39 -7 -6 -67 -34 -72 -34 -3 0 -5 13 -5 29 0
16 -6 34 -14 41 -12 9 -19 6 -37 -14 -13 -14 -26 -26 -31 -26 -19 0 -5 29 32
64 22 21 40 42 40 47 0 13 -2 12 -35 -24z m159 -42 c-4 -8 -8 -15 -10 -15 -2
0 -4 7 -4 15 0 8 4 15 10 15 5 0 7 -7 4 -15z"/>
<path d="M2307 2073 c-4 -3 -7 -16 -6 -27 0 -12 3 -15 6 -8 2 6 9 10 14 6 11
-6 12 7 1 24 -5 7 -11 9 -15 5z"/>
<path d="M2360 2049 c-12 -16 -21 -32 -18 -34 2 -2 13 12 26 31 28 42 21 45
-8 3z"/>
<path d="M4341 2054 c0 -11 3 -14 6 -6 3 7 2 16 -1 19 -3 4 -6 -2 -5 -13z"/>
<path d="M1171 1909 c-39 -80 -71 -154 -71 -163 0 -9 -6 -27 -14 -39 -14 -22
-37 -114 -35 -145 0 -9 11 19 23 63 26 90 87 237 141 338 20 37 35 73 32 80
-2 6 -36 -54 -76 -134z"/>
<path d="M1170 2011 c0 -17 18 -21 24 -6 3 9 0 15 -9 15 -8 0 -15 -4 -15 -9z"/>
<path d="M2255 2010 c-3 -5 -1 -10 4 -10 6 0 11 5 11 10 0 6 -2 10 -4 10 -3 0
-8 -4 -11 -10z"/>
<path d="M1678 2003 c7 -3 16 -2 19 1 4 3 -2 6 -13 5 -11 0 -14 -3 -6 -6z"/>
<path d="M1778 2003 c7 -3 16 -2 19 1 4 3 -2 6 -13 5 -11 0 -14 -3 -6 -6z"/>
<path d="M2293 1997 c-18 -6 -33 -14 -33 -19 0 -9 58 11 66 23 3 5 4 8 2 8 -2
-1 -18 -7 -35 -12z"/>
<path d="M1830 1996 c0 -2 9 -6 20 -9 11 -3 18 -1 14 4 -5 9 -34 13 -34 5z"/>
<path d="M1147 1953 c-10 -9 -9 -23 2 -23 5 0 11 7 15 15 5 15 -5 20 -17 8z"/>
<path d="M3735 1916 l-40 -34 25 -10 25 -10 -35 -16 -35 -15 41 -1 c33 0 43
-5 51 -22 10 -22 12 -19 37 31 31 65 32 73 8 94 -25 23 -31 22 -77 -17z"/>
<path d="M2195 1926 c-23 -25 -26 -40 -4 -19 12 12 21 24 18 27 -2 2 -9 -1
-14 -8z"/>
<path d="M2228 1805 c-71 -67 -128 -128 -128 -134 0 -6 -5 -11 -12 -11 -6 0
-39 -26 -72 -57 -34 -32 -81 -75 -105 -96 l-44 -38 20 -27 c11 -15 30 -28 42
-30 12 -2 33 -21 47 -42 14 -21 32 -41 40 -44 9 -3 14 -20 14 -43 l0 -38 19
30 c12 20 15 36 10 47 -7 12 -2 25 14 44 l24 27 57 -18 c38 -12 55 -22 52 -31
-3 -7 10 -22 29 -34 18 -11 36 -26 39 -33 9 -22 6 40 -4 94 -9 47 -8 58 12 98
21 39 27 44 60 46 20 1 48 9 62 19 22 14 26 24 26 66 0 57 -32 149 -60 175
-11 10 -20 31 -20 47 0 15 -4 28 -10 28 -15 0 -12 21 6 41 9 10 14 22 13 28
-2 5 -61 -46 -131 -114z m-208 -261 c0 -21 -4 -33 -10 -29 -5 3 -10 19 -10 36
0 16 5 29 10 29 6 0 10 -16 10 -36z"/>
<path d="M1110 1868 c-53 -120 -59 -136 -65 -171 -4 -20 -11 -37 -15 -37 -4 0
-10 -17 -13 -37 -3 -21 -11 -67 -17 -102 -6 -35 -8 -78 -3 -95 6 -24 9 -10 14
64 7 95 30 177 86 299 33 74 52 131 44 131 -4 0 -18 -24 -31 -52z"/>
<path d="M2140 1896 c0 -2 8 -10 18 -17 15 -13 16 -12 3 4 -13 16 -21 21 -21
13z"/>
<path d="M1075 1859 c-4 -6 -5 -12 -2 -15 2 -3 7 2 10 11 7 17 1 20 -8 4z"/>
<path d="M2126 1835 c-9 -26 -7 -32 5 -12 6 10 9 21 6 23 -2 3 -7 -2 -11 -11z"/>
<path d="M2070 1801 c-12 -24 -13 -31 -1 -31 5 0 11 11 13 25 6 30 2 32 -12 6z"/>
<path d="M4552 1781 c-15 -47 -15 -51 -2 -51 6 0 10 15 11 33 0 25 2 28 8 13
5 -13 10 -16 15 -8 6 10 -8 52 -18 52 -1 0 -8 -17 -14 -39z"/>
<path d="M4504 1789 c-10 -11 -26 -18 -35 -16 -9 3 -30 -6 -45 -18 -16 -12
-34 -20 -41 -18 -9 4 -13 -5 -13 -25 0 -25 14 -42 36 -42 2 0 7 18 10 40 9 54
27 51 23 -4 -3 -34 0 -47 14 -55 10 -7 22 -9 27 -6 12 7 9 95 -3 95 -5 0 -4 7
3 15 15 18 40 20 40 3 0 -20 20 14 20 35 0 23 -13 22 -36 -4z"/>
<path d="M1023 1735 c-3 -9 -3 -18 -1 -21 3 -3 8 4 11 16 6 23 -1 27 -10 5z"/>
<path d="M1780 1736 c0 -9 5 -16 10 -16 6 0 10 4 10 9 0 6 -4 13 -10 16 -5 3
-10 -1 -10 -9z"/>
<path d="M3718 1733 c7 -3 16 -2 19 1 4 3 -2 6 -13 5 -11 0 -14 -3 -6 -6z"/>
<path d="M4702 1728 c-1 -10 -10 -18 -20 -18 -11 0 -24 -10 -29 -22 l-11 -23
-12 28 c-7 15 -17 27 -22 27 -11 0 -10 -7 7 -40 12 -23 23 -30 44 -30 37 0 53
21 48 62 -2 18 -5 25 -5 16z"/>
<path d="M3648 1724 c-14 -14 -8 -44 8 -44 11 0 14 -5 10 -16 -3 -9 -6 -21 -7
-27 0 -7 -4 -3 -9 8 -7 15 -9 16 -9 4 -1 -19 23 -42 33 -32 3 4 13 -2 20 -13
8 -10 18 -16 22 -11 4 4 2 7 -4 7 -14 0 -16 46 -3 54 5 3 11 -8 15 -25 6 -30
7 -31 28 -17 26 18 35 66 18 98 -12 22 -12 22 -38 -7 -23 -24 -31 -27 -49 -19
-12 6 -23 19 -25 29 -2 10 -6 15 -10 11z"/>
<path d="M1006 1685 c-3 -9 -6 -22 -5 -28 0 -7 5 -1 10 12 5 13 8 26 5 28 -2
2 -6 -3 -10 -12z"/>
<path d="M950 1624 c0 -11 -5 -25 -12 -32 -9 -9 -9 -12 0 -12 13 0 28 47 18
57 -3 4 -6 -3 -6 -13z"/>
<path d="M1757 1605 l-27 -34 34 22 c20 12 35 28 36 35 0 21 -14 13 -43 -23z"/>
<path d="M4129 1624 c-8 -10 -22 -13 -38 -10 -25 5 -25 5 -4 -6 18 -8 27 -7
49 11 15 11 22 21 17 21 -6 0 -16 -7 -24 -16z"/>
<path d="M4198 1633 c7 -3 16 -2 19 1 4 3 -2 6 -13 5 -11 0 -14 -3 -6 -6z"/>
<path d="M1137 1564 c-10 -31 -17 -57 -15 -60 6 -5 40 94 36 105 -1 6 -11 -15
-21 -45z"/>
<path d="M4025 1610 c-3 -5 -2 -10 4 -10 5 0 13 5 16 10 3 6 2 10 -4 10 -5 0
-13 -4 -16 -10z"/>
<path d="M4667 1613 c-12 -11 -8 -108 5 -121 9 -9 9 -15 0 -24 -20 -20 -13
-32 8 -13 11 10 25 36 32 58 11 35 13 37 25 21 11 -15 10 -19 -7 -31 -27 -19
-25 -41 5 -65 31 -24 31 -38 2 -67 -27 -25 -48 -21 -71 14 -8 12 -25 25 -38
28 -23 6 -23 6 2 -13 l25 -20 -38 0 c-35 0 -39 -3 -57 -46 -26 -61 -25 -71 10
-89 40 -21 56 -19 96 11 38 30 41 40 17 66 -18 21 -14 31 10 22 9 -3 20 -24
24 -47 7 -34 13 -43 33 -45 14 -2 30 -10 37 -19 27 -35 93 19 93 77 0 29 4 39
17 42 14 3 18 14 18 59 0 49 -2 55 -22 57 -12 1 -35 -12 -53 -28 -18 -17 -37
-30 -42 -30 -6 0 -23 14 -39 31 -27 29 -28 33 -14 49 8 9 15 23 15 32 0 18
-38 53 -68 63 -37 11 -13 28 32 22 28 -4 35 -3 21 3 -24 10 -69 13 -78 3z
m-46 -253 c12 -7 19 -21 19 -38 0 -25 -3 -27 -43 -27 l-44 0 15 37 c16 41 22
44 53 28z"/>
<path d="M4208 1588 c-37 -27 -35 -36 9 -40 35 -3 37 -5 38 -38 0 -21 -6 -40
-17 -48 -9 -6 -19 -26 -23 -42 -6 -30 -10 -32 -40 -32 -30 0 -32 3 -28 45 5
40 2 46 -32 75 -20 18 -54 40 -76 48 -21 9 -39 21 -39 27 0 7 -5 6 -12 -2 -13
-13 -9 -17 47 -46 23 -12 22 -46 -1 -82 -17 -26 -19 -139 -4 -179 12 -30 4
-47 -10 -24 -14 22 -12 3 3 -23 32 -58 75 -84 92 -57 3 6 14 10 24 10 10 0 30
9 45 21 33 26 67 20 86 -16 28 -53 102 -16 114 57 4 23 12 48 18 55 7 9 7 17
-2 28 -9 10 -10 37 -5 92 6 73 5 79 -17 99 -33 30 -93 64 -111 64 -9 0 -20 6
-24 14 -7 12 -13 11 -35 -6z m30 -353 c-2 -2 -16 -5 -33 -7 -29 -3 -30 -2 -30
39 -1 51 -12 65 -31 38 -15 -20 -15 -20 -30 -1 -16 22 -18 45 -5 65 6 9 11 10
15 2 12 -19 83 -14 92 7 5 11 11 -10 17 -61 5 -43 7 -80 5 -82z"/>
<path d="M4806 1581 c16 -10 47 -38 68 -62 21 -24 33 -35 27 -23 -13 27 -97
104 -113 104 -7 0 1 -8 18 -19z"/>
<path d="M972 1555 c0 -16 2 -22 5 -12 2 9 2 23 0 30 -3 6 -5 -1 -5 -18z"/>
<path d="M3847 1549 c5 -18 3 -21 -10 -16 -11 4 -17 1 -17 -8 0 -21 19 -28 36
-14 17 14 15 50 -3 56 -7 3 -9 -4 -6 -18z"/>
<path d="M1681 1524 c-13 -13 -21 -27 -18 -31 4 -3 7 -1 7 6 0 7 3 10 8 8 4
-3 15 6 25 19 23 31 9 29 -22 -2z"/>
<path d="M3983 1510 c0 -25 2 -35 4 -22 2 12 2 32 0 45 -2 12 -4 2 -4 -23z"/>
<path d="M1041 1514 c0 -11 3 -14 6 -6 3 7 2 16 -1 19 -3 4 -6 -2 -5 -13z"/>
<path d="M916 1485 c-3 -9 -6 -22 -5 -28 0 -7 5 -1 10 12 5 13 8 26 5 28 -2 2
-6 -3 -10 -12z"/>
<path d="M975 1451 c2 -30 9 -59 15 -65 8 -8 9 -6 5 5 -4 10 -10 39 -15 65
l-9 49 4 -54z"/>
<path d="M1556 1465 c-20 -20 -20 -25 0 -25 8 0 13 4 10 9 -4 5 0 11 6 14 7 2
10 7 7 11 -4 4 -14 0 -23 -9z"/>
<path d="M3880 1455 c-27 -28 -48 -32 -56 -10 -12 29 -21 15 -18 -27 2 -25 11
-49 23 -62 l21 -20 0 35 c0 24 7 42 22 55 12 10 18 14 15 7 -9 -15 -26 -103
-20 -103 3 0 17 9 31 21 22 17 26 27 23 62 -4 63 -13 72 -41 42z"/>
<path d="M3966 1424 c-4 -20 -5 -38 -2 -41 2 -3 8 11 12 31 3 21 4 39 1 42 -2
3 -8 -11 -11 -32z"/>
<path d="M1585 1440 c-3 -5 1 -10 9 -10 8 0 18 5 21 10 3 6 -1 10 -9 10 -8 0
-18 -4 -21 -10z"/>
<path d="M904 1433 c3 -6 7 -30 8 -52 1 -30 5 -41 17 -41 9 0 12 3 6 8 -5 4
-11 23 -13 42 -2 19 -8 40 -14 45 -8 7 -9 6 -4 -2z"/>
<path d="M1501 1433 c-1 -7 -6 -12 -12 -10 -6 1 -14 -5 -16 -13 -4 -13 -3 -13
6 0 9 13 11 12 11 -5 1 -19 1 -19 11 -2 6 10 8 23 5 30 -3 9 -5 9 -5 0z"/>
<path d="M1092 1370 c0 -14 2 -19 5 -12 2 6 2 18 0 25 -3 6 -5 1 -5 -13z"/>
<path d="M1440 1367 c-12 -20 -12 -21 2 -9 13 10 17 10 21 0 2 -7 7 -11 10 -8
3 3 0 13 -7 22 -11 15 -13 15 -26 -5z"/>
<path d="M1000 1356 c0 -2 8 -10 18 -17 15 -13 16 -12 3 4 -13 16 -21 21 -21
13z"/>
<path d="M1058 1323 c12 -2 32 -2 45 0 12 2 2 4 -23 4 -25 0 -35 -2 -22 -4z"/>
<path d="M1355 1320 c-3 -5 -1 -10 4 -10 6 0 11 5 11 10 0 6 -2 10 -4 10 -3 0
-8 -4 -11 -10z"/>
<path d="M3940 1324 c0 -6 15 -23 33 -40 l32 -29 -30 35 c-16 19 -31 37 -32
39 -2 2 -3 0 -3 -5z"/>
<path d="M1268 1289 c-10 -5 -18 -15 -18 -22 0 -8 3 -7 9 2 5 7 14 10 20 7 6
-4 11 0 11 8 0 19 0 18 -22 5z"/>
<path d="M1335 1260 c-25 -11 1 -11 35 0 20 6 21 8 5 8 -11 0 -29 -3 -40 -8z"/>
<path d="M965 1231 c-3 -5 0 -13 6 -17 8 -4 9 -3 5 4 -11 18 5 14 28 -5 21
-18 21 -18 2 5 -21 24 -32 27 -41 13z"/>
<path d="M4442 1205 c-15 -32 -15 -45 -1 -25 8 12 9 10 7 -8 -2 -16 5 -28 24
-40 25 -15 28 -15 47 3 27 24 26 41 -4 70 -31 32 -59 32 -73 0z m56 -8 c2 -11
-3 -17 -16 -17 -20 0 -36 23 -24 34 11 12 37 1 40 -17z m12 -37 c0 -5 -4 -10
-10 -10 -5 0 -10 5 -10 10 0 6 5 10 10 10 6 0 10 -4 10 -10z"/>
<path d="M929 1203 c-13 -16 -12 -17 4 -4 16 13 21 21 13 21 -2 0 -10 -8 -17
-17z"/>
<path d="M1027 1169 c4 -13 8 -18 11 -10 2 7 -1 18 -6 23 -8 8 -9 4 -5 -13z"/>
<path d="M980 1160 c-8 -5 -10 -10 -5 -10 6 0 17 5 25 10 8 5 11 10 5 10 -5 0
-17 -5 -25 -10z"/>
<path d="M1090 1160 c0 -5 7 -10 15 -10 8 0 15 5 15 10 0 6 -7 10 -15 10 -8 0
-15 -4 -15 -10z"/>
<path d="M1158 1163 c18 -2 45 -2 60 0 15 2 0 4 -33 4 -33 0 -45 -2 -27 -4z"/>
<path d="M1250 1161 c0 -5 5 -13 10 -16 6 -3 10 -2 10 4 0 5 -4 13 -10 16 -5
3 -10 2 -10 -4z"/>
<path d="M1045 1130 c3 -5 8 -10 11 -10 2 0 4 5 4 10 0 6 -5 10 -11 10 -5 0
-7 -4 -4 -10z"/>
<path d="M1081 1129 c13 -8 128 -14 118 -5 -2 2 -33 6 -68 9 -41 3 -59 2 -50
-4z"/>
<path d="M2181 1103 c-1 -37 -7 -40 -33 -16 -14 13 -18 13 -18 2 -1 -9 -8 -5
-20 10 -19 22 -20 22 -20 3 0 -20 32 -41 88 -57 12 -3 22 -10 22 -15 0 -14 31
-20 51 -10 12 7 19 21 19 41 0 25 -3 29 -17 20 -22 -12 -51 3 -63 32 -8 20 -9
18 -9 -10z"/>
<path d="M2045 1110 c3 -5 10 -10 16 -10 5 0 9 5 9 10 0 6 -7 10 -16 10 -8 0
-12 -4 -9 -10z"/>
</g>
</svg>
