<?xml version="1.0" standalone="no"?>
<!DOCTYPE svg PUBLIC "-//W3C//DTD SVG 20010904//EN"
 "http://www.w3.org/TR/2001/REC-SVG-20010904/DTD/svg10.dtd">
<svg version="1.0" xmlns="http://www.w3.org/2000/svg"
 width="192.000000pt" height="192.000000pt" viewBox="0 0 192.000000 192.000000"
 preserveAspectRatio="xMidYMid meet">

<g transform="translate(0.000000,192.000000) scale(0.100000,-0.100000)"
fill="#000000" stroke="none">
<path d="M214 1754 c-8 -53 6 -76 34 -58 21 14 36 88 16 80 -8 -3 -11 0 -7 10
3 9 -2 14 -15 14 -17 0 -22 -9 -28 -46z"/>
<path d="M320 1781 c0 -30 17 -34 22 -6 4 17 1 25 -8 25 -8 0 -14 -9 -14 -19z"/>
<path d="M375 1750 c-3 -6 -3 -19 0 -30 5 -16 10 -18 26 -10 24 14 24 27 0 40
-13 7 -22 7 -26 0z"/>
<path d="M411 1706 c-8 -9 -11 -19 -8 -22 9 -10 57 5 57 17 0 6 -6 9 -14 6 -8
-3 -16 -1 -18 5 -2 6 -10 3 -17 -6z"/>
<path d="M276 1638 c-3 -13 -6 -34 -6 -48 l0 -24 17 24 c23 33 28 70 10 70 -8
0 -17 -10 -21 -22z"/>
<path d="M338 1639 c-10 -5 -18 -21 -18 -35 0 -14 -5 -35 -11 -46 -9 -16 -7
-24 6 -37 10 -9 15 -10 11 -3 -4 7 -4 22 0 34 7 22 7 22 29 -6 15 -19 25 -24
30 -16 4 6 -2 22 -14 34 -19 20 -20 24 -6 36 18 15 20 50 3 50 -7 0 -21 -5
-30 -11z"/>
<path d="M675 1540 c-3 -5 -1 -10 4 -10 6 0 11 5 11 10 0 6 -2 10 -4 10 -3 0
-8 -4 -11 -10z"/>
<path d="M882 1533 c-36 -14 -57 -113 -24 -113 23 0 42 -19 42 -42 0 -11 -7
-18 -20 -18 -24 0 -26 -18 -4 -48 26 -38 49 -44 77 -22 33 26 42 61 16 67 -35
10 -16 63 23 63 9 0 22 -9 28 -20 6 -11 7 -20 1 -20 -5 0 -12 -15 -15 -34 -7
-34 -55 -86 -80 -86 -24 0 -58 33 -80 81 -14 27 -20 46 -15 43 6 -3 7 6 3 23
-9 39 -13 43 -30 36 -8 -3 -14 -2 -12 3 2 5 -1 11 -7 14 -5 3 -11 -2 -13 -11
-2 -10 6 -19 18 -22 16 -4 21 -12 18 -29 -4 -25 -7 -25 -54 -7 -27 11 -35 10
-61 -9 -18 -13 -38 -19 -50 -16 -15 4 -25 0 -32 -15 -10 -18 -9 -21 11 -21 13
0 29 -9 36 -21 8 -12 19 -18 28 -15 39 15 98 -50 73 -80 -8 -9 -8 -18 -2 -26
6 -7 13 -25 15 -40 5 -24 2 -28 -18 -28 -13 0 -24 -4 -24 -10 0 -5 10 -10 23
-10 29 0 51 -15 43 -29 -4 -6 -16 -11 -28 -11 -13 0 -18 -5 -15 -14 3 -8 1
-17 -6 -20 -7 -2 -2 -5 11 -5 15 -1 22 -7 22 -21 0 -13 5 -18 16 -13 10 4 17
-1 21 -15 3 -12 10 -18 19 -15 8 3 12 9 9 13 -3 5 1 15 9 23 17 17 10 57 -10
57 -9 0 -13 8 -11 22 3 18 11 22 46 23 23 1 44 -3 47 -7 9 -14 26 -9 21 7 -4
8 -2 17 3 20 6 4 6 14 -1 27 -10 18 -9 20 6 14 13 -5 16 -2 11 11 -7 17 -6 17
9 2 14 -14 15 -20 3 -38 -11 -18 -11 -23 2 -31 10 -6 11 -10 3 -10 -20 0 -15
-17 7 -23 11 -3 20 -1 20 4 0 5 9 18 20 29 23 23 29 68 34 233 2 67 -1 103
-10 115 -12 16 -13 16 -19 0 -11 -27 -22 -22 -29 14 -13 63 -56 104 -56 53 0
-14 5 -25 10 -25 16 0 12 -17 -13 -45 l-22 -26 -23 30 c-19 27 -21 32 -7 37 8
3 15 17 15 30 0 24 -4 27 -28 17z m58 -209 c0 -8 -7 -14 -15 -14 -17 0 -18 2
-9 24 7 18 24 12 24 -10z m-66 -61 c11 -26 -13 -12 -40 25 l-29 37 32 -25 c17
-14 34 -31 37 -37z"/>
<path d="M1080 1502 c-17 -13 -19 -19 -8 -19 8 0 20 9 27 19 6 10 9 18 7 18
-2 0 -14 -8 -26 -18z"/>
<path d="M701 1484 c0 -11 3 -14 6 -6 3 7 2 16 -1 19 -3 4 -6 -2 -5 -13z"/>
<path d="M385 1480 c-4 -6 -8 -26 -10 -45 -2 -25 1 -35 11 -35 8 0 14 -4 14
-10 0 -15 -31 -12 -49 4 -9 7 -29 16 -46 20 -28 7 -29 6 -10 -8 24 -18 16 -28
-25 -30 -33 -1 -42 -16 -10 -16 12 0 20 -7 20 -16 0 -9 -9 -18 -20 -21 -11 -3
-20 -9 -20 -14 0 -13 7 -11 35 7 28 18 32 9 10 -22 -21 -30 -6 -38 22 -12 15
14 38 23 62 24 21 1 43 4 49 8 6 3 14 2 17 -4 5 -8 11 -8 21 1 10 8 17 7 29
-5 9 -9 20 -16 24 -16 5 0 20 -18 35 -40 25 -38 54 -56 43 -27 -6 16 27 39 45
32 9 -4 13 5 14 25 1 25 -3 30 -23 30 -20 0 -23 -4 -18 -22 6 -17 4 -20 -10
-15 -9 4 -23 7 -31 7 -9 0 -14 11 -14 30 0 24 -7 35 -30 48 -16 9 -30 21 -30
25 0 5 -5 5 -11 1 -8 -5 -8 -1 0 14 7 14 8 23 1 27 -5 3 -10 15 -10 26 0 21
-20 25 -38 7 -9 -9 -12 -7 -12 10 0 23 -24 30 -35 12z m55 -70 c0 -11 -4 -20
-10 -20 -5 0 -10 9 -10 20 0 11 5 20 10 20 6 0 10 -9 10 -20z"/>
<path d="M1577 1433 c-4 -3 -15 -7 -25 -8 -9 -1 -37 -12 -62 -24 -27 -15 -46
-19 -48 -13 -2 8 -11 8 -29 1 -15 -5 -35 -8 -46 -7 -15 2 -26 -9 -44 -41 -12
-24 -23 -48 -23 -53 0 -16 34 -8 57 13 16 16 26 19 35 12 7 -6 39 -10 72 -8
51 1 61 -2 82 -24 13 -14 26 -22 30 -18 4 4 0 15 -9 25 -27 30 -22 47 9 27 34
-22 42 -13 10 13 -33 25 -33 32 2 33 20 1 22 2 7 6 -38 10 -62 43 -31 43 8 0
16 7 20 15 6 16 3 19 -7 8z"/>
<path d="M505 1410 c-8 -13 3 -30 20 -30 8 0 11 7 8 20 -6 22 -18 26 -28 10z"/>
<path d="M1095 1323 c7 -64 15 -96 15 -60 0 21 30 37 70 37 24 0 31 4 27 14
-3 8 1 17 9 20 27 10 9 31 -23 28 -18 -2 -35 3 -43 12 -7 9 -24 16 -37 16 -24
0 -25 -1 -18 -67z"/>
<path d="M720 1198 c0 -9 5 -20 11 -23 17 -11 20 0 4 21 -13 17 -14 17 -15 2z"/>
<path d="M140 1190 c-9 -6 -10 -10 -3 -10 6 0 15 5 18 10 8 12 4 12 -15 0z"/>
<path d="M654 1185 c-10 -24 19 -75 41 -75 19 1 19 2 3 14 -12 8 -14 16 -7 23
12 12 2 40 -17 47 -8 3 -17 -1 -20 -9z"/>
<path d="M1710 1146 c0 -8 5 -18 10 -21 6 -3 10 1 10 9 0 8 -4 18 -10 21 -5 3
-10 -1 -10 -9z"/>
<path d="M1371 1074 c0 -11 3 -14 6 -6 3 7 2 16 -1 19 -3 4 -6 -2 -5 -13z"/>
<path d="M930 876 c0 -2 9 -6 20 -9 11 -3 20 -1 20 4 0 5 -9 9 -20 9 -11 0
-20 -2 -20 -4z"/>
<path d="M953 837 c-39 -42 -39 -36 -3 -151 5 -16 6 -34 2 -40 -12 -17 -6
-135 8 -162 8 -13 19 -24 27 -24 22 0 15 -27 -12 -44 -33 -22 -33 -45 -1 -39
16 3 26 13 28 27 2 11 7 19 12 18 5 -2 13 2 17 10 7 11 12 11 29 0 25 -15 50
-4 74 32 13 20 14 30 4 50 -8 19 -8 29 1 40 7 8 9 25 6 39 -4 14 -2 28 4 31
14 9 14 81 0 148 -9 39 -9 53 0 56 18 6 13 20 -11 28 -13 5 -26 7 -30 6 -5 -1
-8 3 -8 10 0 6 -6 3 -14 -7 -12 -17 -16 -18 -31 -5 -31 26 -63 19 -102 -23z"/>
<path d="M800 820 c0 -5 -16 -16 -35 -24 -19 -8 -35 -20 -35 -25 0 -6 -11 -11
-25 -11 -21 0 -25 -5 -25 -29 0 -17 4 -32 9 -35 10 -7 91 62 91 77 0 7 10 17
22 22 26 12 36 35 14 35 -9 0 -16 -4 -16 -10z"/>
<path d="M1572 800 c0 -14 2 -19 5 -12 2 6 2 18 0 25 -3 6 -5 1 -5 -13z"/>
<path d="M1218 775 c-8 -9 18 -79 32 -83 8 -3 10 3 5 18 -4 12 -8 29 -9 36 -3
18 -21 36 -28 29z"/>
<path d="M1265 770 c-3 -5 3 -26 14 -47 11 -21 21 -36 22 -33 0 3 3 24 5 48 3
36 1 42 -16 42 -10 0 -22 -4 -25 -10z"/>
<path d="M1367 743 c-8 -7 11 -33 24 -33 5 0 9 9 9 20 0 19 -20 27 -33 13z"/>
<path d="M802 680 c-35 -33 -50 -54 -46 -64 3 -9 1 -16 -5 -16 -6 0 -11 5 -11
11 0 8 -5 8 -15 -1 -22 -18 -18 -31 16 -65 18 -17 27 -22 23 -12 -10 27 42 26
63 -1 11 -15 12 -12 13 20 0 30 5 39 27 50 37 17 39 39 11 87 l-23 39 -53 -48z"/>
<path d="M425 710 c3 -5 8 -10 11 -10 2 0 4 5 4 10 0 6 -5 10 -11 10 -5 0 -7
-4 -4 -10z"/>
<path d="M1655 690 c4 -6 11 -8 16 -5 14 9 11 15 -7 15 -8 0 -12 -5 -9 -10z"/>
<path d="M1616 681 c-3 -5 1 -14 9 -21 13 -10 15 -9 15 9 0 21 -14 28 -24 12z"/>
<path d="M1370 673 c0 -7 -7 -13 -15 -13 -17 0 -20 -16 -4 -26 17 -10 40 18
29 36 -7 10 -10 11 -10 3z"/>
<path d="M1710 665 c-8 -9 -8 -15 -2 -15 12 0 26 19 19 26 -2 2 -10 -2 -17
-11z"/>
<path d="M1540 620 c0 -5 5 -10 10 -10 6 0 9 -6 8 -12 -5 -22 -40 -52 -37 -30
3 20 -3 32 -20 42 -21 11 -21 11 -24 -61 -1 -60 8 -72 49 -64 21 4 41 2 49 -5
18 -15 25 -1 32 63 5 50 4 53 -25 70 -35 20 -42 21 -42 7z m10 -95 c0 -14 -4
-25 -10 -25 -5 0 -10 7 -10 16 0 8 -4 12 -10 9 -5 -3 -10 1 -10 9 0 9 9 16 20
16 15 0 20 -7 20 -25z"/>
<path d="M1710 606 c0 -19 4 -24 15 -19 18 6 16 34 -2 41 -8 2 -13 -6 -13 -22z"/>
<path d="M373 596 c0 -14 3 -26 8 -26 11 0 11 21 0 39 -6 9 -8 5 -8 -13z"/>
<path d="M1425 571 c-3 -6 -11 -9 -16 -6 -5 4 -9 2 -9 -3 0 -17 30 -22 37 -6
7 18 -2 30 -12 15z"/>
<path d="M1765 570 c-4 -6 -10 -8 -14 -6 -4 3 -12 -4 -19 -14 -9 -15 -8 -22 4
-35 24 -24 43 -18 52 18 5 17 7 35 5 40 -6 10 -21 9 -28 -3z"/>
<path d="M1700 542 c0 -14 -6 -22 -17 -22 -13 0 -14 -3 -6 -11 17 -17 43 -3
40 20 -4 29 -17 38 -17 13z"/>
<path d="M1630 480 c0 -6 7 -10 15 -10 8 0 15 2 15 4 0 2 -7 6 -15 10 -8 3
-15 1 -15 -4z"/>
<path d="M815 430 c4 -6 11 -8 16 -5 14 9 11 15 -7 15 -8 0 -12 -5 -9 -10z"/>
<path d="M945 190 c3 -5 8 -10 11 -10 2 0 4 5 4 10 0 6 -5 10 -11 10 -5 0 -7
-4 -4 -10z"/>
</g>
</svg>
